<svg version="1.2" xmlns="http://www.w3.org/2000/svg" viewBox="0 0 1000 1000" width="500" height="500"><style></style><path fill-rule="evenodd" d="m586.6 584.4c-0.5 12.9-12.3 22.5-25.1 20.2l-97.2-17.3 3.5-5.1c1.7-2.5 5.2-3.2 7.7-1.4l6.9 4.8c3.5 2.3 8.2 0.2 8.7-4l5.4-44.1c0.5-4.5-4.2-7.7-8.2-5.6l-39.3 20.8c-3.7 1.9-4 7.1-0.6 9.5l7 4.8c2.5 1.7 3.2 5.2 1.4 7.7l-6.4 9.3q-0.2 0.4-0.4 0.7l-23.1-4.1c-12.8-2.3-20.6-15.3-16.6-27.6l35-107.4c3.3-10.1 13.6-16.2 24.1-14.4l103.8 18.5c10.5 1.9 18 11.2 17.6 21.9zm-86.1-130.9c-2.4-0.4-4.8 1.2-5.2 3.7-0.4 2.4 1.2 4.8 3.6 5.2 2.5 0.4 4.8-1.2 5.3-3.6 0.4-2.5-1.2-4.8-3.7-5.3zm35.8 6.4c-2.4-0.4-4.8 1.2-5.2 3.7-0.4 2.4 1.2 4.7 3.7 5.2 2.4 0.4 4.7-1.2 5.2-3.7 0.4-2.4-1.2-4.7-3.7-5.2z"/><path  d="m545.5 439.2l-10.6-1.9 1.9-11.1c1.9-10.3-3.3-19.9-11.4-21.3-3.8-0.7-7.7 0.5-11.1 3.3-3.6 3-6.1 7.5-7.1 12.7l-1.9 11.1-10.7-1.9 2-11.1c1.4-7.6 5.2-14.4 10.8-19.1 5.8-4.9 12.9-6.9 19.9-5.6 14 2.5 23.1 17.6 20.2 33.8z"/></svg>